<?xml version="1.0" encoding="UTF-8" standalone="no"?>
<!DOCTYPE svg PUBLIC "-//W3C//DTD SVG 1.1//EN" "http://www.w3.org/Graphics/SVG/1.1/DTD/svg11.dtd">
<!-- Created with Vectornator (http://vectornator.io/) -->
<svg height="100%" stroke-miterlimit="10" style="fill-rule:nonzero;clip-rule:evenodd;stroke-linecap:round;stroke-linejoin:round;" version="1.1" viewBox="50.6855 0 538.631 640" width="100%" xml:space="preserve" xmlns="http://www.w3.org/2000/svg" xmlns:vectornator="http://vectornator.io" xmlns:xlink="http://www.w3.org/1999/xlink">
<defs/>
<g id="Untitled" vectornator:layerName="Untitled">
<g opacity="1" vectornator:layerName="g">
<path d="M557.443 243.705C563.367 241.586 568.738 238.004 572.988 233.182L573.659 232.422C587.357 216.885 585.864 193.099 570.326 179.398L487.382 106.259C480.515 100.203 471.693 96.8684 462.544 96.8684C451.76 96.8684 441.486 101.506 434.363 109.582L433.68 110.355C430.313 114.172 427.813 118.542 426.239 123.227C406.96 114.917 386.525 108.803 365.247 105.189L365.247 76.3172L376.864 76.3172C397.511 76.3172 414.308 59.5184 414.308 38.8727L414.308 37.4463C414.308 16.7989 397.511 0 376.862 0L262.777 0C242.129 0 225.332 16.7989 225.332 37.4445L225.332 38.8709C225.332 59.5184 242.129 76.3154 262.777 76.3154L276.21 76.3154L276.21 104.945C148.464 125.925 50.6855 237.092 50.6855 370.684C50.6855 519.186 171.499 640 320 640C468.502 640 589.316 519.186 589.316 370.684C589.314 324.795 577.767 281.558 557.443 243.705ZM319.998 574.585C207.568 574.585 116.099 483.115 116.099 370.684C116.099 258.252 207.568 166.782 319.998 166.782C432.43 166.782 523.9 258.252 523.9 370.684C523.9 483.115 432.43 574.585 319.998 574.585Z" fill="#ffffff" fill-rule="nonzero" opacity="1" stroke="none" vectornator:layerName="path"/>
<path d="M347.076 322.682L347.076 241.671C347.076 226.619 334.873 214.415 319.82 214.415C304.767 214.415 292.564 226.619 292.564 241.671L292.564 322.889C276.614 332.313 265.884 349.677 265.884 369.508C265.884 399.348 290.158 423.626 319.998 423.626C349.838 423.626 374.114 399.35 374.114 369.508C374.116 349.529 363.225 332.056 347.076 322.682Z" fill="#ffffff" fill-rule="nonzero" opacity="1" stroke="none" vectornator:layerName="path"/>
</g>
</g>
</svg>
